<?xml version="1.0" encoding="UTF-8" standalone="no"?>
<svg
   xmlns:dc="http://purl.org/dc/elements/1.1/"
   xmlns:cc="http://creativecommons.org/ns#"
   xmlns:rdf="http://www.w3.org/1999/02/22-rdf-syntax-ns#"
   xmlns:svg="http://www.w3.org/2000/svg"
   xmlns="http://www.w3.org/2000/svg"
   viewBox="0 0 817.44427 545.31842"
   height="545.31842"
   width="817.44427"
   xml:space="preserve"
   id="svg2"
   version="1.1"><metadata
     id="metadata8"><rdf:RDF><cc:Work
         rdf:about=""><dc:format>image/svg+xml</dc:format><dc:type
           rdf:resource="http://purl.org/dc/dcmitype/StillImage" /></cc:Work></rdf:RDF></metadata><defs
     id="defs6" /><g
     transform="matrix(1.3333333,0,0,-1.3333333,0,545.3184)"
     id="g10"><g
       id="g12"><g
         transform="matrix(1,0,0,-1,0,408.9888)"
         id="g14"><path
           id="path16"
           style="fill:#233e90;fill-opacity:1;fill-rule:nonzero;stroke:#010101;stroke-width:0.80000001;stroke-linecap:butt;stroke-linejoin:miter;stroke-miterlimit:4;stroke-dasharray:none;stroke-opacity:1"
           d="M 0.398,0.398 H 612.679 V 408.593 H 0.398 Z" /></g><g
         transform="matrix(1,0,0,-1,0,408.9888)"
         id="g18"><path
           id="path20"
           style="fill:#ffcd05;fill-opacity:1;fill-rule:nonzero;stroke:#010101;stroke-width:0.80000001;stroke-linecap:butt;stroke-linejoin:miter;stroke-miterlimit:4;stroke-dasharray:none;stroke-opacity:1"
           d="m 442.609,212.32 -11.953,8.543 4.434,-14.008 -11.817,-8.726 14.688,-0.113 4.648,-13.926 4.637,13.926 14.692,0.113 -11.817,8.726 4.43,14.008 z" /></g><g
         transform="matrix(1,0,0,-1,0,408.9888)"
         id="g22"><path
           id="path24"
           style="fill:#ffcd05;fill-opacity:1;fill-rule:nonzero;stroke:#010101;stroke-width:0.80000001;stroke-linecap:butt;stroke-linejoin:miter;stroke-miterlimit:4;stroke-dasharray:none;stroke-opacity:1"
           d="m 238.801,94.711 -11.953,8.547 4.433,-14.012 -11.816,-8.726 14.687,-0.114 4.649,-13.929 4.648,13.929 14.688,0.114 -11.817,8.726 4.434,14.012 z" /></g><g
         transform="matrix(1,0,0,-1,0,408.9888)"
         id="g26"><path
           id="path28"
           style="fill:#ffcd05;fill-opacity:1;fill-rule:nonzero;stroke:#010101;stroke-width:0.80000001;stroke-linecap:butt;stroke-linejoin:miter;stroke-miterlimit:4;stroke-dasharray:none;stroke-opacity:1"
           d="m 189.098,144.414 -11.953,8.547 4.429,-14 -11.812,-8.731 14.687,-0.109 4.649,-13.937 4.636,13.937 14.692,0.109 -11.817,8.731 4.43,14 z" /></g><g
         transform="matrix(1,0,0,-1,0,408.9888)"
         id="g30"><path
           id="path32"
           style="fill:#ffcd05;fill-opacity:1;fill-rule:nonzero;stroke:#010101;stroke-width:0.80000001;stroke-linecap:butt;stroke-linejoin:miter;stroke-miterlimit:4;stroke-dasharray:none;stroke-opacity:1"
           d="m 170.992,212.32 -11.945,8.543 4.426,-14.008 -11.809,-8.726 14.688,-0.113 4.64,-13.938 4.649,13.938 14.687,0.113 -11.816,8.726 4.433,14.008 z" /></g><g
         transform="matrix(1,0,0,-1,0,408.9888)"
         id="g34"><path
           id="path36"
           style="fill:#ffcd05;fill-opacity:1;fill-rule:nonzero;stroke:#010101;stroke-width:0.80000001;stroke-linecap:butt;stroke-linejoin:miter;stroke-miterlimit:4;stroke-dasharray:none;stroke-opacity:1"
           d="m 189.199,280.223 -11.953,8.547 4.434,-14.008 -11.817,-8.731 14.688,-0.109 4.648,-13.93 4.649,13.93 14.687,0.109 -11.816,8.731 4.433,14.008 z" /></g><g
         transform="matrix(1,0,0,-1,0,408.9888)"
         id="g38"><path
           id="path40"
           style="fill:#ffcd05;fill-opacity:1;fill-rule:nonzero;stroke:#010101;stroke-width:0.80000001;stroke-linecap:butt;stroke-linejoin:miter;stroke-miterlimit:4;stroke-dasharray:none;stroke-opacity:1"
           d="m 238.902,329.938 -11.941,8.535 4.422,-14.008 -11.817,-8.723 14.692,-0.109 4.644,-13.938 4.649,13.938 14.687,0.109 -11.812,8.723 4.429,14.008 z" /></g><g
         transform="matrix(1,0,0,-1,0,408.9888)"
         id="g42"><path
           id="path44"
           style="fill:#ffcd05;fill-opacity:1;fill-rule:nonzero;stroke:#010101;stroke-width:0.80000001;stroke-linecap:butt;stroke-linejoin:miter;stroke-miterlimit:4;stroke-dasharray:none;stroke-opacity:1"
           d="m 306.801,348.129 -11.953,8.535 4.433,-14 -11.816,-8.726 14.687,-0.114 4.649,-13.937 4.648,13.937 14.688,0.114 -11.817,8.726 4.434,14 z" /></g><g
         transform="matrix(1,0,0,-1,0,408.9888)"
         id="g46"><path
           id="path48"
           style="fill:#ffcd05;fill-opacity:1;fill-rule:nonzero;stroke:#010101;stroke-width:0.80000001;stroke-linecap:butt;stroke-linejoin:miter;stroke-miterlimit:4;stroke-dasharray:none;stroke-opacity:1"
           d="m 374.801,329.938 -11.953,8.535 4.433,-14 -11.816,-8.731 14.687,-0.109 4.649,-13.938 4.648,13.938 14.688,0.109 -11.817,8.731 4.434,14 z" /></g><g
         transform="matrix(1,0,0,-1,0,408.9888)"
         id="g50"><path
           id="path52"
           style="fill:#ffcd05;fill-opacity:1;fill-rule:nonzero;stroke:#010101;stroke-width:0.80000001;stroke-linecap:butt;stroke-linejoin:miter;stroke-miterlimit:4;stroke-dasharray:none;stroke-opacity:1"
           d="m 424.504,280.223 -11.945,8.547 4.433,-14.008 -11.816,-8.731 14.679,-0.109 4.649,-13.93 4.648,13.93 14.688,0.109 -11.817,8.731 4.434,14.008 z" /></g><g
         transform="matrix(1,0,0,-1,0,408.9888)"
         id="g54"><path
           id="path56"
           style="fill:#ffcd05;fill-opacity:1;fill-rule:nonzero;stroke:#010101;stroke-width:0.80000001;stroke-linecap:butt;stroke-linejoin:miter;stroke-miterlimit:4;stroke-dasharray:none;stroke-opacity:1"
           d="m 424.406,144.414 -11.941,8.547 4.422,-14 -11.817,-8.731 14.692,-0.109 4.644,-13.937 4.649,13.937 14.687,0.109 -11.812,8.731 4.429,14 z" /></g><g
         transform="matrix(1,0,0,-1,0,408.9888)"
         id="g58"><path
           id="path60"
           style="fill:#ffcd05;fill-opacity:1;fill-rule:nonzero;stroke:#010101;stroke-width:0.80000001;stroke-linecap:butt;stroke-linejoin:miter;stroke-miterlimit:4;stroke-dasharray:none;stroke-opacity:1"
           d="m 306.801,76.516 -11.953,8.539 4.433,-14.004 -11.816,-8.723 14.687,-0.117 4.649,-13.93 4.648,13.93 14.688,0.117 -11.817,8.723 4.434,14.004 z" /></g><g
         transform="matrix(1,0,0,-1,0,408.9888)"
         id="g62"><path
           id="path64"
           style="fill:#ffcd05;fill-opacity:1;fill-rule:nonzero;stroke:#010101;stroke-width:0.80000001;stroke-linecap:butt;stroke-linejoin:miter;stroke-miterlimit:4;stroke-dasharray:none;stroke-opacity:1"
           d="m 374.922,94.711 -11.953,8.547 4.429,-14.012 -11.812,-8.719 14.687,-0.121 4.649,-13.929 4.644,13.929 14.692,0.121 -11.817,8.719 4.43,14.012 z" /></g></g></g></svg>